<mxfile host="65bd71144e">
    <diagram id="MoPSJQw6Dy35TPDjorbg" name="Page-1">
        <mxGraphModel dx="2380" dy="825" grid="1" gridSize="10" guides="1" tooltips="1" connect="1" arrows="1" fold="1" page="1" pageScale="1" pageWidth="1100" pageHeight="850" background="#FFFFFF" math="0" shadow="0">
            <root>
                <mxCell id="0"/>
                <mxCell id="1" parent="0"/>
                <mxCell id="2" value="" style="swimlane;startSize=0;strokeColor=#000000;strokeWidth=2;" vertex="1" parent="1">
                    <mxGeometry x="-760" y="200" width="1280" height="390" as="geometry"/>
                </mxCell>
                <mxCell id="9" value="Course Registration System" style="rounded=1;whiteSpace=wrap;html=1;strokeColor=#B0B0B0;strokeWidth=1;fontSize=15;fontColor=#000000;fillColor=#E6E6E6;fontStyle=1;verticalAlign=middle;" vertex="1" parent="2">
                    <mxGeometry x="505" y="20" width="270" height="50" as="geometry"/>
                </mxCell>
                <mxCell id="10" value="Registration Portal" style="rounded=1;whiteSpace=wrap;html=1;strokeColor=#B0B0B0;strokeWidth=1;fontSize=15;fontColor=#000000;fillColor=#E6E6E6;fontStyle=1;verticalAlign=middle;" vertex="1" parent="2">
                    <mxGeometry x="551.25" y="177.5" width="177.5" height="45" as="geometry"/>
                </mxCell>
                <mxCell id="11" value="Faculty Services" style="rounded=1;whiteSpace=wrap;html=1;strokeColor=#B0B0B0;strokeWidth=1;fontSize=15;fontColor=#000000;fillColor=#E6E6E6;fontStyle=1;verticalAlign=middle;" vertex="1" parent="2">
                    <mxGeometry x="320" y="180" width="177.5" height="45" as="geometry"/>
                </mxCell>
                <mxCell id="12" value="Course Catalog" style="rounded=1;whiteSpace=wrap;html=1;strokeColor=#B0B0B0;strokeWidth=1;fontSize=15;fontColor=#000000;fillColor=#E6E6E6;fontStyle=1;verticalAlign=middle;" vertex="1" parent="2">
                    <mxGeometry x="90" y="180" width="177.5" height="45" as="geometry"/>
                </mxCell>
                <mxCell id="13" value="Payment System" style="rounded=1;whiteSpace=wrap;html=1;strokeColor=#B0B0B0;strokeWidth=1;fontSize=15;fontColor=#000000;fillColor=#E6E6E6;fontStyle=1;verticalAlign=middle;" vertex="1" parent="2">
                    <mxGeometry x="1010" y="177.5" width="177.5" height="45" as="geometry"/>
                </mxCell>
                <mxCell id="14" value="Student Services" style="rounded=1;whiteSpace=wrap;html=1;strokeColor=#B0B0B0;strokeWidth=1;fontSize=15;fontColor=#000000;fillColor=#E6E6E6;fontStyle=1;verticalAlign=middle;" vertex="1" parent="2">
                    <mxGeometry x="780" y="177.5" width="177.5" height="45" as="geometry"/>
                </mxCell>
                <mxCell id="15" value="Faculty Records Database" style="rounded=1;whiteSpace=wrap;html=1;strokeColor=#B0B0B0;strokeWidth=1;fontSize=15;fontColor=#000000;fillColor=#E6E6E6;fontStyle=1;verticalAlign=middle;" vertex="1" parent="2">
                    <mxGeometry x="400" y="310" width="270" height="50" as="geometry"/>
                </mxCell>
                <mxCell id="16" value="Course Records Database" style="rounded=1;whiteSpace=wrap;html=1;strokeColor=#B0B0B0;strokeWidth=1;fontSize=15;fontColor=#000000;fillColor=#E6E6E6;fontStyle=1;verticalAlign=middle;" vertex="1" parent="2">
                    <mxGeometry x="110" y="310" width="270" height="50" as="geometry"/>
                </mxCell>
                <mxCell id="17" value="Student Records Database" style="rounded=1;whiteSpace=wrap;html=1;strokeColor=#B0B0B0;strokeWidth=1;fontSize=15;fontColor=#000000;fillColor=#E6E6E6;fontStyle=1;verticalAlign=middle;" vertex="1" parent="2">
                    <mxGeometry x="720" y="310" width="270" height="50" as="geometry"/>
                </mxCell>
                <mxCell id="18" value="" style="endArrow=classic;html=1;strokeColor=#000000;strokeWidth=2;fontSize=15;fontColor=#000000;exitX=0.153;exitY=1.058;exitDx=0;exitDy=0;exitPerimeter=0;entryX=1;entryY=0;entryDx=0;entryDy=0;" edge="1" parent="2" source="9" target="12">
                    <mxGeometry width="50" height="50" relative="1" as="geometry">
                        <mxPoint x="620" y="270" as="sourcePoint"/>
                        <mxPoint x="670" y="220" as="targetPoint"/>
                    </mxGeometry>
                </mxCell>
                <mxCell id="19" value="" style="endArrow=classic;html=1;strokeColor=#000000;strokeWidth=2;fontSize=15;fontColor=#000000;exitX=0.153;exitY=1.058;exitDx=0;exitDy=0;exitPerimeter=0;entryX=0.75;entryY=0;entryDx=0;entryDy=0;" edge="1" parent="2" target="11">
                    <mxGeometry width="50" height="50" relative="1" as="geometry">
                        <mxPoint x="588.81" y="72.90000000000009" as="sourcePoint"/>
                        <mxPoint x="310" y="180" as="targetPoint"/>
                    </mxGeometry>
                </mxCell>
                <mxCell id="20" value="" style="endArrow=classic;html=1;strokeColor=#000000;strokeWidth=2;fontSize=15;fontColor=#000000;exitX=0.5;exitY=1;exitDx=0;exitDy=0;entryX=0.5;entryY=0;entryDx=0;entryDy=0;" edge="1" parent="2" source="9" target="10">
                    <mxGeometry width="50" height="50" relative="1" as="geometry">
                        <mxPoint x="620" y="270" as="sourcePoint"/>
                        <mxPoint x="670" y="220" as="targetPoint"/>
                    </mxGeometry>
                </mxCell>
                <mxCell id="21" value="" style="endArrow=classic;html=1;strokeColor=#000000;strokeWidth=2;fontSize=15;fontColor=#000000;exitX=0.5;exitY=1;exitDx=0;exitDy=0;entryX=0.25;entryY=0;entryDx=0;entryDy=0;" edge="1" parent="2" target="14">
                    <mxGeometry width="50" height="50" relative="1" as="geometry">
                        <mxPoint x="690" y="70" as="sourcePoint"/>
                        <mxPoint x="690" y="177.5" as="targetPoint"/>
                    </mxGeometry>
                </mxCell>
                <mxCell id="22" value="" style="endArrow=classic;html=1;strokeColor=#000000;strokeWidth=2;fontSize=15;fontColor=#000000;exitX=0.5;exitY=1;exitDx=0;exitDy=0;entryX=0;entryY=0;entryDx=0;entryDy=0;" edge="1" parent="2" target="13">
                    <mxGeometry width="50" height="50" relative="1" as="geometry">
                        <mxPoint x="740" y="72.5" as="sourcePoint"/>
                        <mxPoint x="740" y="180" as="targetPoint"/>
                    </mxGeometry>
                </mxCell>
                <mxCell id="23" value="" style="endArrow=classic;html=1;strokeColor=#000000;strokeWidth=2;fontSize=15;fontColor=#000000;entryX=0.5;entryY=0;entryDx=0;entryDy=0;" edge="1" parent="2" target="16">
                    <mxGeometry width="50" height="50" relative="1" as="geometry">
                        <mxPoint x="185" y="230" as="sourcePoint"/>
                        <mxPoint x="235" y="180" as="targetPoint"/>
                    </mxGeometry>
                </mxCell>
                <mxCell id="24" value="" style="endArrow=classic;html=1;strokeColor=#000000;strokeWidth=2;fontSize=15;fontColor=#000000;entryX=0.39;entryY=-0.068;entryDx=0;entryDy=0;entryPerimeter=0;" edge="1" parent="2" target="15">
                    <mxGeometry width="50" height="50" relative="1" as="geometry">
                        <mxPoint x="430" y="230" as="sourcePoint"/>
                        <mxPoint x="490" y="310" as="targetPoint"/>
                    </mxGeometry>
                </mxCell>
                <mxCell id="25" value="" style="endArrow=classic;html=1;strokeColor=#000000;strokeWidth=2;fontSize=15;fontColor=#000000;entryX=0.316;entryY=-0.005;entryDx=0;entryDy=0;entryPerimeter=0;" edge="1" parent="2" target="17">
                    <mxGeometry width="50" height="50" relative="1" as="geometry">
                        <mxPoint x="670" y="225" as="sourcePoint"/>
                        <mxPoint x="745.3000000000002" y="301.60000000000014" as="targetPoint"/>
                    </mxGeometry>
                </mxCell>
                <mxCell id="26" value="" style="endArrow=classic;html=1;strokeColor=#000000;strokeWidth=2;fontSize=15;fontColor=#000000;entryX=0.456;entryY=-0.026;entryDx=0;entryDy=0;entryPerimeter=0;" edge="1" parent="2" target="17">
                    <mxGeometry width="50" height="50" relative="1" as="geometry">
                        <mxPoint x="860" y="222.5" as="sourcePoint"/>
                        <mxPoint x="910" y="172.5" as="targetPoint"/>
                    </mxGeometry>
                </mxCell>
                <mxCell id="5" value="University Academic Course Registration System" style="text;html=1;strokeColor=none;fillColor=none;align=left;verticalAlign=middle;whiteSpace=wrap;rounded=0;strokeWidth=2;fontColor=#000000;fontStyle=1;fontSize=13;" vertex="1" parent="1">
                    <mxGeometry x="-750" y="180" width="340" height="20" as="geometry"/>
                </mxCell>
                <mxCell id="6" value="" style="endArrow=none;html=1;fontColor=#000000;strokeColor=#000000;strokeWidth=2;" edge="1" parent="1">
                    <mxGeometry width="50" height="50" relative="1" as="geometry">
                        <mxPoint x="-760" y="200" as="sourcePoint"/>
                        <mxPoint x="-760" y="180" as="targetPoint"/>
                    </mxGeometry>
                </mxCell>
                <mxCell id="7" value="" style="endArrow=none;html=1;strokeColor=#000000;strokeWidth=2;fontColor=#000000;" edge="1" parent="1">
                    <mxGeometry width="50" height="50" relative="1" as="geometry">
                        <mxPoint x="-760" y="180" as="sourcePoint"/>
                        <mxPoint x="-430" y="180" as="targetPoint"/>
                    </mxGeometry>
                </mxCell>
                <mxCell id="8" value="" style="endArrow=none;html=1;strokeColor=#000000;strokeWidth=2;fontSize=13;fontColor=#000000;exitX=0.98;exitY=0.99;exitDx=0;exitDy=0;exitPerimeter=0;" edge="1" parent="1" source="5">
                    <mxGeometry width="50" height="50" relative="1" as="geometry">
                        <mxPoint x="-480" y="220" as="sourcePoint"/>
                        <mxPoint x="-430" y="180" as="targetPoint"/>
                    </mxGeometry>
                </mxCell>
            </root>
        </mxGraphModel>
    </diagram>
</mxfile>